<svg width="8" height="8" viewBox="0 0 8 8" fill="none" xmlns="http://www.w3.org/2000/svg">
<path fill-rule="evenodd" clip-rule="evenodd" d="M7.88284 0.117157C8.03905 0.273367 8.03905 0.526633 7.88284 0.682843L0.682843 7.88284C0.526633 8.03905 0.273367 8.03905 0.117157 7.88284C-0.0390524 7.72663 -0.0390524 7.47337 0.117157 7.31716L7.31716 0.117157C7.47337 -0.0390524 7.72663 -0.0390524 7.88284 0.117157Z" fill="white"/>
<path fill-rule="evenodd" clip-rule="evenodd" d="M0.117157 0.117157C0.273367 -0.0390524 0.526633 -0.0390524 0.682843 0.117157L7.88284 7.31716C8.03905 7.47337 8.03905 7.72663 7.88284 7.88284C7.72663 8.03905 7.47337 8.03905 7.31716 7.88284L0.117157 0.682843C-0.0390524 0.526633 -0.0390524 0.273367 0.117157 0.117157Z" fill="white"/>
</svg>
